<?xml version="1.0" encoding="UTF-8" standalone="no"?>
<svg
   xmlns:dc="http://purl.org/dc/elements/1.1/"
   xmlns:cc="http://creativecommons.org/ns#"
   xmlns:rdf="http://www.w3.org/1999/02/22-rdf-syntax-ns#"
   xmlns:svg="http://www.w3.org/2000/svg"
   xmlns="http://www.w3.org/2000/svg"
   xmlns:sodipodi="http://sodipodi.sourceforge.net/DTD/sodipodi-0.dtd"
   xmlns:inkscape="http://www.inkscape.org/namespaces/inkscape"
   inkscape:version="1.0 (4035a4f, 2020-05-01)"
   sodipodi:docname="info-button.svg"
   id="svg843"
   xml:space="preserve"
   enable-background="new 0 0 1000 1000"
   viewBox="0 0 1000 1000"
   y="0px"
   x="0px"
   version="1.1"><metadata
   id="metadata849"><rdf:RDF><cc:Work
       rdf:about=""><dc:format>image/svg+xml</dc:format><dc:type
         rdf:resource="http://purl.org/dc/dcmitype/StillImage" /></cc:Work></rdf:RDF></metadata><defs
   id="defs847" /><sodipodi:namedview
   inkscape:current-layer="svg843"
   inkscape:window-maximized="0"
   inkscape:window-y="23"
   inkscape:window-x="0"
   inkscape:cy="500"
   inkscape:cx="500"
   inkscape:zoom="0.673"
   showgrid="false"
   id="namedview845"
   inkscape:window-height="1037"
   inkscape:window-width="1542"
   inkscape:pageshadow="2"
   inkscape:pageopacity="0"
   guidetolerance="10"
   gridtolerance="10"
   objecttolerance="10"
   borderopacity="1"
   bordercolor="#666666"
   pagecolor="#ffffff" />
<g
   style="fill:#f2f2f2;fill-opacity:1"
   id="g841"><g
     style="fill:#f2f2f2;fill-opacity:1"
     id="g839"
     transform="translate(0.000000,502.000000) scale(0.100000,-0.100000)"><path
       style="fill:#f2f2f2;fill-opacity:1"
       id="path833"
       d="M4638.5,4912.1c-1226.2-97.8-2333.2-621.9-3187.8-1511.8c-367.7-381.4-616-739.3-860.5-1238c-228.8-465.5-371.6-927-451.8-1447.2c-50.8-326.6-50.8-1060-2-1378.8c82.1-535.8,228.8-1003.3,463.5-1476.6C1812.5-4596.6,4795-5588.2,7220-4342.4c948.5,487,1656.5,1194.9,2143.5,2143.5c530,1032.6,670.8,2186.5,406.8,3344.3c-111.5,492.8-389.2,1136.3-674.7,1564.6c-796,1196.9-2032,1973.3-3457.7,2170.8C5383.6,4916,4888.8,4931.7,4638.5,4912.1z M5401.2,4538.6c852.7-80.2,1636.9-383.3,2337.1-907.5c244.5-183.8,680.6-618,862.5-862.5c385.3-514.3,643.4-1044.3,788.2-1617.4c105.6-416.6,136.9-672.8,136.9-1130.4c0-598.4-88-1089.3-289.5-1609.6c-801.8-2071.1-2957-3266-5116.2-2837.8C2723.9-4150.7,1558.2-3253,922.6-1964.2C611.7-1334.5,463-693,463,20.8c0,512.4,70.4,954.4,228.8,1427.7C1352.9,3437.5,3324.3,4732.2,5401.2,4538.6z" /><path
       style="fill:#f2f2f2;fill-opacity:1"
       id="path835"
       d="M4812.6,3015.1c-203.4-52.8-404.8-219-490.9-404.8c-174.1-381.4-15.6-825.3,361.8-1001.3c97.8-46.9,135-52.8,316.8-52.8c185.8,0,217.1,5.9,316.8,54.8c154.5,76.3,279.7,203.4,354,361.8c56.7,119.3,62.6,148.6,62.6,316.8c0,160.4-7.8,201.4-52.8,297.3c-72.4,154.5-211.2,297.3-361.8,371.6c-105.6,50.8-152.5,62.6-285.5,66.5C4945.5,3028.7,4845.8,3022.9,4812.6,3015.1z M5188.1,2612.2c293.3-172.1,224.9-608.2-109.5-696.2c-264-68.4-522.2,199.5-449.8,469.4c25.4,95.8,111.5,199.5,199.5,242.5C4927.9,2678.7,5088.3,2670.8,5188.1,2612.2z" /><path
       style="fill:#f2f2f2;fill-opacity:1"
       id="path837"
       d="M4748,1049.6c-751-129.1-686.5-76.3-686.5-559.3c0-340.3,2-352,46.9-404.8c41.1-46.9,62.6-54.8,185.8-60.6l138.9-7.8v-946.6v-946.6H4308c-107.6,0-134.9-7.8-185.8-50.8l-60.6-50.9v-455.7v-455.7l60.6-50.9l60.6-50.8h817.5h819.4l54.8,47l54.8,46.9v461.6c0,453.7,0,461.5-45,504.6c-35.2,35.2-72.4,46.9-185.8,54.8l-140.8,9.8l-2,1453.1l-1.9,1455.1l-46.9,46.9c-25.4,25.4-72.4,50.8-105.6,54.8C5369.9,1149.3,5074.6,1106.3,4748,1049.6z M5195.9-685.2c0-985.7,5.9-1441.4,21.5-1468.7c29.3-54.8,135-93.9,252.3-93.9h97.8v-185.8v-185.8h-567.2h-567.2v183.8v183.8l129.1,7.8c117.3,7.8,136.9,13.7,187.7,70.4l54.8,64.6l-3.9,1202.8L4795,298.6l-54.8,46.9c-45,39.1-76.3,46.9-181.9,46.9h-125.2v117.3c0,80.2,7.8,117.3,25.4,117.3c11.7,2,168.2,27.4,346.2,58.7c178,29.3,338.3,56.7,357.9,56.7C5193.9,744.5,5195.9,664.3,5195.9-685.2z" /></g></g>
</svg>
