<?xml version="1.0" encoding="UTF-8" standalone="no"?>
<svg
   xmlns:dc="http://purl.org/dc/elements/1.1/"
   xmlns:cc="http://creativecommons.org/ns#"
   xmlns:rdf="http://www.w3.org/1999/02/22-rdf-syntax-ns#"
   xmlns:svg="http://www.w3.org/2000/svg"
   xmlns="http://www.w3.org/2000/svg"
   xmlns:sodipodi="http://sodipodi.sourceforge.net/DTD/sodipodi-0.dtd"
   xmlns:inkscape="http://www.inkscape.org/namespaces/inkscape"
   inkscape:version="1.0 (4035a4f, 2020-05-01)"
   sodipodi:docname="fullscreen-button.svg"
   id="svg1101"
   xml:space="preserve"
   enable-background="new 0 0 1000 1000"
   viewBox="0 0 1000 1000"
   y="0px"
   x="0px"
   version="1.1"><defs
   id="defs1105" /><sodipodi:namedview
   inkscape:current-layer="g1064"
   inkscape:window-maximized="0"
   inkscape:window-y="23"
   inkscape:window-x="0"
   inkscape:cy="500"
   inkscape:cx="214.28571"
   inkscape:zoom="0.735"
   showgrid="false"
   id="namedview1103"
   inkscape:window-height="994"
   inkscape:window-width="1431"
   inkscape:pageshadow="2"
   inkscape:pageopacity="0"
   guidetolerance="10"
   gridtolerance="10"
   objecttolerance="10"
   borderopacity="1"
   bordercolor="#666666"
   pagecolor="#ffffff" />
<metadata
   id="metadata1060"> Svg Vector Icons : http://www.onlinewebfonts.com/icon <rdf:RDF><cc:Work
     rdf:about=""><dc:format>image/svg+xml</dc:format><dc:type
       rdf:resource="http://purl.org/dc/dcmitype/StillImage" /></cc:Work></rdf:RDF></metadata>
<g
   id="g1064"
   style="fill:#fafafa;fill-opacity:1"><path
     d="M 400.7,554.7 254.3,701.1 255,622.5 c 0,-16.9 -13.7,-30.6 -30.6,-30.6 -16.9,0 -30.6,13.7 -30.6,30.6 v 153.1 c 0,9.1 3.7,16.4 9.7,21.4 5.5,5.7 13.3,9.2 21.8,9.2 h 152.3 c 16.9,0 30.6,-13.7 30.6,-30.6 0,-16.9 -13.8,-30.6 -30.7,-30.6 H 297 L 444,598 Z M 377.5,255 c 16.9,0 30.6,-13.7 30.6,-30.6 0,-16.9 -13.7,-30.6 -30.6,-30.6 H 225.2 c -8.5,0 -16.3,3.6 -21.8,9.2 -5.9,5.1 -9.7,12.4 -9.7,21.4 v 153.1 c 0,16.9 13.7,30.6 30.6,30.6 16.9,0 30.6,-13.7 30.6,-30.6 L 254.2,298.9 400.5,445.2 443.8,401.9 297,255 Z m 398.1,336.9 c -16.9,0 -30.6,13.7 -30.6,30.6 l 0.7,78.6 L 599.3,554.8 556,598.1 703,745 h -80.5 c -16.9,0 -30.6,13.7 -30.6,30.6 0,16.9 13.7,30.6 30.6,30.6 h 152.3 c 8.6,0 16.3,-3.6 21.8,-9.2 5.9,-5 9.7,-12.3 9.7,-21.4 V 622.5 c 0,-16.9 -13.8,-30.6 -30.7,-30.6 z M 774.8,193.8 H 622.5 c -16.9,0 -30.6,13.7 -30.6,30.6 0,16.9 13.7,30.6 30.6,30.6 H 703 L 556,402 599.3,445.3 745.6,299 745,377.6 c 0,16.9 13.7,30.6 30.6,30.6 16.9,0 30.6,-13.7 30.6,-30.6 V 224.4 c 0,-9.1 -3.8,-16.4 -9.7,-21.4 -5.5,-5.7 -13.2,-9.2 -21.7,-9.2 z M 867.5,10 h -735 C 64.8,10 10,64.8 10,132.5 v 735 C 10,935.2 64.8,990 132.5,990 h 735 C 935.2,990 990,935.2 990,867.5 v -735 C 990,64.8 935.2,10 867.5,10 Z m 61.3,857.5 c 0,33.8 -27.4,61.3 -61.3,61.3 h -735 c -33.8,0 -61.3,-27.4 -61.3,-61.3 v -735 c 0,-33.8 27.4,-61.3 61.3,-61.3 h 735 c 33.8,0 61.3,27.4 61.3,61.3 z"
     id="path1062"
     style="fill:#fafafa;fill-opacity:1" /></g>
</svg>
